<svg width="489" height="56" viewBox="0 0 489 56" fill="none" xmlns="http://www.w3.org/2000/svg">
<path d="M165.227 26.836C165.019 25.748 164.187 24.116 161.803 24.116C159.083 24.116 157.947 26.468 157.947 28.772C157.947 31.092 159.083 33.444 161.803 33.444C164.203 33.444 165.131 31.812 165.227 30.372H166.667C166.411 32.9 164.619 34.724 161.803 34.724C158.667 34.724 156.507 32.228 156.507 28.772C156.507 25.332 158.667 22.836 161.803 22.836C164.603 22.836 166.395 24.66 166.667 26.836H165.227ZM171.659 26.116C171.963 26.116 172.187 26.132 172.411 26.164V27.444H172.379C170.603 27.156 169.371 28.404 169.371 30.148V34.5H168.091V26.34H169.371V27.956H169.403C169.835 26.884 170.491 26.116 171.659 26.116ZM176.735 33.604C178.367 33.604 178.975 32.548 179.119 31.988H180.399C179.983 33.508 178.815 34.724 176.783 34.724C174.303 34.724 172.799 32.98 172.799 30.42C172.799 27.7 174.335 26.116 176.719 26.116C179.279 26.116 180.527 27.86 180.527 30.756H174.079C174.079 32.228 174.959 33.604 176.735 33.604ZM176.719 27.236C175.183 27.236 174.079 28.324 174.079 29.636H179.247C179.247 28.324 178.255 27.236 176.719 27.236ZM186.786 28.42C186.786 27.78 186.434 27.236 185.122 27.236C183.57 27.236 183.058 27.684 182.978 28.868H181.698C181.778 27.3 182.754 26.116 185.122 26.116C186.674 26.116 188.066 26.724 188.066 28.692V32.66C188.066 33.3 188.178 33.652 188.994 33.556V34.452C188.658 34.564 188.482 34.58 188.242 34.58C187.474 34.58 187.01 34.372 186.786 33.476H186.754C186.242 34.244 185.33 34.724 183.986 34.724C182.338 34.724 181.298 33.78 181.298 32.404C181.298 30.548 182.674 30.068 184.786 29.668C186.162 29.412 186.786 29.236 186.786 28.42ZM184.114 33.604C185.634 33.604 186.786 32.916 186.786 31.348V29.988C186.546 30.228 185.762 30.452 184.898 30.628C183.314 30.964 182.578 31.364 182.578 32.34C182.578 33.14 183.058 33.604 184.114 33.604ZM193.346 27.46H191.746V32.372C191.746 33.3 192.258 33.46 193.346 33.38V34.5C193.058 34.564 192.722 34.596 192.386 34.596C191.298 34.596 190.466 34.164 190.466 32.5V27.46H189.266V26.34H190.466V23.62H191.746V26.34H193.346V27.46ZM198.079 33.604C199.711 33.604 200.319 32.548 200.463 31.988H201.743C201.327 33.508 200.159 34.724 198.127 34.724C195.647 34.724 194.143 32.98 194.143 30.42C194.143 27.7 195.679 26.116 198.063 26.116C200.623 26.116 201.871 27.86 201.871 30.756H195.423C195.423 32.228 196.303 33.604 198.079 33.604ZM198.063 27.236C196.527 27.236 195.423 28.324 195.423 29.636H200.591C200.591 28.324 199.599 27.236 198.063 27.236ZM214.885 25.94C214.885 27.348 214.053 27.988 213.109 28.308V28.34C214.309 28.548 215.333 29.46 215.333 31.172C215.333 33.284 213.829 34.5 211.461 34.5H206.533V23.06H211.141C213.477 23.06 214.885 24.164 214.885 25.94ZM207.973 27.844H211.365C212.997 27.844 213.445 27.14 213.445 26.1C213.445 25.06 212.837 24.34 211.525 24.34H207.973V27.844ZM207.973 29.124V33.22H211.605C213.445 33.22 213.893 32.244 213.893 31.172C213.893 29.94 213.125 29.124 211.925 29.124H207.973ZM220.174 34.724C217.678 34.724 216.174 32.964 216.174 30.42C216.174 27.876 217.678 26.116 220.174 26.116C222.654 26.116 224.158 27.876 224.158 30.42C224.158 32.964 222.654 34.724 220.174 34.724ZM220.174 33.604C221.998 33.604 222.878 32.164 222.878 30.42C222.878 28.676 221.998 27.236 220.174 27.236C218.334 27.236 217.454 28.676 217.454 30.42C217.454 32.164 218.334 33.604 220.174 33.604ZM230.858 26.34H232.138V34.5H230.858V33.524H230.826C230.394 34.1 229.53 34.724 228.138 34.724C226.65 34.724 225.402 33.908 225.402 32.036V26.34H226.682V31.716C226.682 32.772 227.178 33.604 228.458 33.604C229.898 33.604 230.858 32.692 230.858 31.428V26.34ZM237.903 26.116C239.391 26.116 240.639 26.932 240.639 28.804V34.5H239.359V29.124C239.359 28.068 238.863 27.236 237.583 27.236C236.143 27.236 235.183 28.148 235.183 29.412V34.5H233.903V26.34H235.183V27.316H235.215C235.647 26.74 236.511 26.116 237.903 26.116ZM245.752 27.46H244.152V32.372C244.152 33.3 244.664 33.46 245.752 33.38V34.5C245.464 34.564 245.128 34.596 244.792 34.596C243.704 34.596 242.872 34.164 242.872 32.5V27.46H241.672V26.34H242.872V23.62H244.152V26.34H245.752V27.46ZM254.003 26.34L250.515 35.172C250.163 36.052 249.747 37.252 248.243 37.252C247.731 37.252 247.363 37.156 247.155 37.092V36.132H247.347C248.051 36.196 248.547 36.148 248.979 35.684C249.315 35.316 249.651 34.628 249.331 33.828L246.243 26.34H247.683L250.179 32.996H250.211L252.563 26.34H254.003ZM262.426 27.828C265.002 28.468 266.682 28.9 266.682 31.508C266.682 33.172 265.45 34.724 262.554 34.724C259.85 34.724 257.754 33.284 257.594 30.66H259.034C259.194 32.228 260.154 33.444 262.554 33.444C264.538 33.444 265.242 32.532 265.242 31.508C265.242 29.94 264.394 29.652 261.834 29.06C260.122 28.66 258.074 28.068 258.074 25.844C258.074 24.036 259.466 22.836 261.994 22.836C264.426 22.836 266.122 24.084 266.314 26.452H264.874C264.666 24.916 263.802 24.116 261.994 24.116C260.378 24.116 259.514 24.74 259.514 25.684C259.514 27.204 260.746 27.412 262.426 27.828ZM272.042 26.116C274.058 26.116 275.69 27.732 275.69 30.42C275.69 33.108 274.058 34.724 272.042 34.724C270.698 34.724 269.93 34.148 269.45 33.444H269.418V37.252H268.138V26.34H269.418V27.348H269.45C269.93 26.724 270.698 26.116 272.042 26.116ZM271.882 33.604C273.562 33.604 274.41 32.02 274.41 30.42C274.41 28.82 273.562 27.236 271.882 27.236C270.362 27.236 269.418 28.5 269.418 30.42C269.418 32.34 270.362 33.604 271.882 33.604ZM282.02 28.42C282.02 27.78 281.668 27.236 280.356 27.236C278.804 27.236 278.292 27.684 278.212 28.868H276.932C277.012 27.3 277.988 26.116 280.356 26.116C281.908 26.116 283.3 26.724 283.3 28.692V32.66C283.3 33.3 283.412 33.652 284.228 33.556V34.452C283.892 34.564 283.716 34.58 283.476 34.58C282.708 34.58 282.244 34.372 282.02 33.476H281.988C281.476 34.244 280.564 34.724 279.22 34.724C277.572 34.724 276.532 33.78 276.532 32.404C276.532 30.548 277.908 30.068 280.02 29.668C281.396 29.412 282.02 29.236 282.02 28.42ZM279.348 33.604C280.868 33.604 282.02 32.916 282.02 31.348V29.988C281.78 30.228 280.996 30.452 280.132 30.628C278.548 30.964 277.812 31.364 277.812 32.34C277.812 33.14 278.292 33.604 279.348 33.604ZM290.977 29.284C290.913 28.388 290.305 27.236 288.673 27.236C286.737 27.236 286.001 28.884 286.001 30.42C286.001 31.956 286.737 33.604 288.673 33.604C290.321 33.604 290.913 32.468 290.977 31.492H292.257C292.145 33.348 290.689 34.724 288.673 34.724C286.289 34.724 284.721 32.98 284.721 30.42C284.721 27.86 286.289 26.116 288.673 26.116C290.689 26.116 292.065 27.46 292.257 29.284H290.977ZM296.954 33.604C298.586 33.604 299.194 32.548 299.338 31.988H300.618C300.202 33.508 299.034 34.724 297.002 34.724C294.522 34.724 293.018 32.98 293.018 30.42C293.018 27.7 294.554 26.116 296.938 26.116C299.498 26.116 300.746 27.86 300.746 30.756H294.298C294.298 32.228 295.178 33.604 296.954 33.604ZM296.938 27.236C295.402 27.236 294.298 28.324 294.298 29.636H299.466C299.466 28.324 298.474 27.236 296.938 27.236Z" fill="white"/>
<path d="M315.9 34L314.5 32.6L324.1 23H315.5V21H327.5V33H325.5V24.4L315.9 34Z" fill="white"/>
<rect x="0.5" y="0.5" width="488" height="55" rx="7.5" stroke="url(#paint0_linear_101_161)"/>
<defs>
<linearGradient id="paint0_linear_101_161" x1="-210.392" y1="56" x2="573.824" y2="3.91704" gradientUnits="userSpaceOnUse">
<stop stop-color="#FC8C02"/>
<stop offset="1" stop-color="#5618FF"/>
</linearGradient>
</defs>
</svg>
