<svg width="194" height="46" viewBox="0 0 194 46" fill="none" xmlns="http://www.w3.org/2000/svg">
<path d="M9.14591 30V8.436H0.865906V4.8H21.4579V8.436H13.2139V30H9.14591ZM24.6059 4.8H28.3139V14.88C29.6819 12.972 31.5899 12 34.0739 12C36.4859 12 38.3219 12.756 39.5459 14.268C40.7699 15.78 41.3819 17.832 41.3819 20.424V30H37.6739V20.46C37.6739 18.84 37.2779 17.616 36.4859 16.752C35.6939 15.888 34.5779 15.456 33.2099 15.456C31.7699 15.456 30.6179 15.996 29.6819 17.004C28.7459 18.012 28.3139 19.272 28.3139 20.748V30H24.6059V4.8ZM49.8647 12.18V30H46.1567V12.18H49.8647ZM45.7247 7.032C45.7247 8.004 46.0847 8.688 46.8767 9.084C47.6327 9.48 48.3887 9.48 49.1807 9.084C49.9367 8.688 50.3327 8.004 50.3327 7.032C50.3327 6.096 49.9367 5.412 49.1807 5.016C48.3887 4.656 47.6327 4.656 46.8767 5.016C46.0847 5.412 45.7247 6.096 45.7247 7.032ZM54.9106 12.252H58.3666L58.6186 14.592C59.6266 12.792 61.3906 11.856 63.8386 11.856C65.6386 11.856 67.0786 12.36 68.2306 13.368L66.5386 16.608C65.6386 15.888 64.5946 15.528 63.4066 15.528C62.0386 15.528 60.8866 15.96 59.9866 16.788C59.0506 17.652 58.6186 18.84 58.6186 20.388V30H54.9106V12.252ZM78.6234 15.348C77.0034 15.348 75.6714 15.888 74.5914 16.896C73.5114 17.94 73.0074 19.344 73.0074 21.108C73.0074 22.872 73.5114 24.276 74.5914 25.32C75.6714 26.4 77.0034 26.904 78.6234 26.904C80.2074 26.904 81.5394 26.364 82.6194 25.284C83.6994 24.204 84.2754 22.836 84.2754 21.108C84.2754 19.452 83.6994 18.048 82.6194 16.968C81.5394 15.888 80.2074 15.348 78.6234 15.348ZM84.5274 4.836H88.2354V30H84.7434L84.5274 27.192C83.2314 29.316 81.1794 30.36 78.3714 30.36C75.7074 30.36 73.5474 29.532 71.8554 27.876C70.1274 26.22 69.2994 23.988 69.2994 21.108C69.2994 18.192 70.1274 15.924 71.7834 14.304C73.4394 12.684 75.6354 11.856 78.2994 11.856C79.4514 11.856 80.6394 12.144 81.8634 12.72C83.0874 13.296 83.9514 14.052 84.5274 15.024V4.836Z" fill="white"/>
<path d="M107.155 14.16L105.067 16.608C103.843 15.528 102.295 14.952 100.387 14.952C99.235 14.952 98.299 15.132 97.615 15.492C96.931 15.852 96.607 16.392 96.607 17.076C96.607 18.372 97.903 19.128 100.459 19.344C101.467 19.452 102.331 19.596 103.051 19.74C103.771 19.884 104.563 20.172 105.391 20.532C106.219 20.892 106.867 21.468 107.299 22.188C107.731 22.944 107.983 23.844 107.983 24.924C107.947 26.616 107.263 27.984 105.895 28.992C104.527 30.036 102.691 30.54 100.423 30.54C96.967 30.54 94.267 29.46 92.323 27.264L94.267 24.636C95.779 26.364 97.867 27.228 100.495 27.264C101.503 27.264 102.367 27.084 103.123 26.688C103.843 26.328 104.239 25.752 104.275 24.96C104.275 24.204 103.951 23.628 103.267 23.268C102.583 22.908 101.539 22.656 100.171 22.512C95.347 22.08 92.935 20.28 92.935 17.184C92.935 15.384 93.655 14.052 95.167 13.152C96.679 12.252 98.371 11.784 100.315 11.784C103.087 11.784 105.355 12.576 107.155 14.16ZM121.304 26.796C122.924 26.796 124.256 26.292 125.336 25.212C126.38 24.168 126.92 22.8 126.92 21.144C126.92 19.488 126.38 18.12 125.372 17.076C124.328 16.032 122.96 15.492 121.304 15.492C119.612 15.492 118.244 16.032 117.236 17.112C116.228 18.192 115.724 19.56 115.724 21.144C115.724 22.764 116.228 24.096 117.308 25.176C118.352 26.256 119.684 26.796 121.304 26.796ZM115.4 38.244H111.692V12.252H115.184L115.4 15.132C116.048 14.124 116.912 13.332 118.064 12.756C119.216 12.18 120.404 11.892 121.664 11.892C124.292 11.928 126.452 12.792 128.108 14.52C129.764 16.248 130.628 18.48 130.628 21.144C130.628 23.88 129.8 26.076 128.18 27.804C126.524 29.532 124.364 30.396 121.664 30.396C120.44 30.396 119.216 30.18 118.064 29.676C116.912 29.172 116.012 28.416 115.4 27.408V38.244ZM148.727 15.06L148.835 12.252H152.435V30H148.907L148.727 27.12C148.151 28.2 147.287 29.028 146.135 29.604C144.983 30.18 143.795 30.468 142.607 30.468C139.943 30.504 137.747 29.676 136.055 28.02C134.327 26.364 133.499 24.06 133.499 21.108C133.499 18.228 134.363 15.996 136.091 14.34C137.819 12.684 140.015 11.856 142.679 11.856C143.939 11.856 145.127 12.144 146.243 12.72C147.323 13.296 148.151 14.088 148.727 15.06ZM142.967 15.24C141.311 15.24 139.943 15.78 138.863 16.86C137.747 17.94 137.207 19.344 137.207 21.108C137.207 22.908 137.747 24.312 138.863 25.392C139.943 26.472 141.311 27.012 142.967 27.012C144.011 27.012 144.947 26.796 145.775 26.364C146.603 25.932 147.215 25.392 147.647 24.672C148.079 23.988 148.367 23.232 148.583 22.404C148.799 21.576 148.799 20.748 148.583 19.884C148.367 19.056 148.079 18.3 147.647 17.58C147.215 16.896 146.603 16.32 145.775 15.888C144.947 15.456 144.011 15.24 142.967 15.24ZM169.957 25.212L172.477 27.696C170.605 29.568 168.337 30.468 165.745 30.468C163.045 30.468 160.813 29.676 159.049 28.02C157.249 26.4 156.385 24.096 156.385 21.144C156.385 18.192 157.249 15.924 159.049 14.268C160.813 12.648 163.045 11.82 165.745 11.82C168.229 11.82 170.353 12.72 172.153 14.448L169.777 16.932C168.697 15.888 167.365 15.348 165.781 15.348C164.125 15.348 162.793 15.888 161.713 16.968C160.633 18.048 160.093 19.416 160.093 21.144C160.093 22.944 160.633 24.348 161.713 25.356C162.793 26.364 164.125 26.868 165.745 26.868C167.473 26.868 168.877 26.328 169.957 25.212ZM192.532 22.512H178.132C178.276 23.88 178.888 24.96 179.932 25.752C180.976 26.58 182.308 26.976 183.928 26.976C184.864 26.976 185.836 26.832 186.808 26.472C187.78 26.112 188.536 25.644 189.076 25.068L191.488 27.408C190.588 28.38 189.436 29.136 188.068 29.64C186.7 30.18 185.296 30.432 183.856 30.432C180.94 30.432 178.6 29.604 176.872 27.876C175.144 26.184 174.28 23.916 174.28 21.036C174.28 18.336 175.144 16.104 176.872 14.376C178.6 12.648 180.832 11.784 183.604 11.784C186.556 11.784 188.896 12.72 190.552 14.52C192.208 16.356 192.856 19.02 192.532 22.512ZM178.204 19.38H188.968C188.86 18.012 188.32 16.968 187.384 16.212C186.448 15.492 185.224 15.096 183.712 15.096C182.308 15.096 181.12 15.492 180.112 16.212C179.104 16.968 178.492 18.012 178.204 19.38Z" fill="url(#paint0_linear_473_1658)"/>
<defs>
<linearGradient id="paint0_linear_473_1658" x1="46.6843" y1="46" x2="212.547" y2="43.1753" gradientUnits="userSpaceOnUse">
<stop stop-color="#FC8C02"/>
<stop offset="1" stop-color="#5618FF"/>
</linearGradient>
</defs>
</svg>
