<svg width="489" height="24" viewBox="0 0 489 24" fill="none" xmlns="http://www.w3.org/2000/svg">
<line y1="11.5" x2="201" y2="11.5" stroke="#1F1F1F"/>
<path d="M238.864 16.18C236.272 16.18 234.652 14.284 234.652 11.704C234.652 9.124 236.272 7.24 238.864 7.24C241.444 7.24 243.076 9.124 243.076 11.704C243.076 14.284 241.444 16.18 238.864 16.18ZM238.864 14.956C240.832 14.956 241.648 13.444 241.648 11.704C241.648 9.976 240.832 8.464 238.864 8.464C236.896 8.464 236.068 9.976 236.068 11.704C236.068 13.444 236.896 14.956 238.864 14.956ZM246.995 9.724C247.211 9.724 247.367 9.736 247.547 9.76V10.948H247.523C246.311 10.744 245.339 11.56 245.339 12.868V16H244.079V9.868H245.339V11.02H245.363C245.687 10.252 246.191 9.724 246.995 9.724Z" fill="#999999"/>
<line x1="281" y1="11.5" x2="489" y2="11.5" stroke="#1F1F1F"/>
</svg>
