<svg width="482" height="56" viewBox="0 0 482 56" fill="none" xmlns="http://www.w3.org/2000/svg">
<rect x="0.5" y="0.5" width="481" height="55" rx="7.5" fill="url(#paint0_linear_101_231)"/>
<path d="M149.023 34V22.56H153.887C156.079 22.56 157.663 23.584 157.663 25.984C157.663 28.384 156.079 29.424 153.887 29.424H150.927V34H149.023ZM150.927 24.176V27.792H153.807C155.087 27.792 155.759 27.248 155.759 25.984C155.759 24.736 155.087 24.176 153.807 24.176H150.927ZM162.641 25.632C162.929 25.632 163.137 25.648 163.377 25.68V27.264H163.345C161.729 26.992 160.433 28.08 160.433 29.824V34H158.753V25.824H160.433V27.36H160.465C160.897 26.336 161.569 25.632 162.641 25.632ZM167.871 34.24C165.311 34.24 163.759 32.464 163.759 29.92C163.759 27.376 165.311 25.6 167.871 25.6C170.431 25.6 171.983 27.376 171.983 29.92C171.983 32.464 170.431 34.24 167.871 34.24ZM167.871 32.864C169.471 32.864 170.303 31.6 170.303 29.92C170.303 28.224 169.471 26.976 167.871 26.976C166.271 26.976 165.439 28.224 165.439 29.92C165.439 31.6 166.271 32.864 167.871 32.864ZM178.776 28.816C178.712 27.984 178.184 26.976 176.744 26.976C175.096 26.976 174.392 28.384 174.392 29.92C174.392 31.456 175.08 32.864 176.744 32.864C178.184 32.864 178.712 31.872 178.776 30.96H180.456C180.328 32.848 178.872 34.24 176.744 34.24C174.296 34.24 172.712 32.48 172.712 29.92C172.712 27.36 174.296 25.6 176.728 25.6C178.856 25.6 180.248 26.96 180.456 28.816H178.776ZM185.182 32.864C186.574 32.864 187.134 32 187.278 31.504H188.958C188.542 33.056 187.326 34.24 185.23 34.24C182.686 34.24 181.134 32.48 181.134 29.92C181.134 27.264 182.686 25.6 185.15 25.6C187.79 25.6 189.086 27.44 189.086 30.352H182.814C182.814 31.728 183.694 32.864 185.182 32.864ZM185.15 26.928C183.79 26.928 182.814 27.84 182.814 29.104H187.406C187.406 27.84 186.51 26.928 185.15 26.928ZM193.854 32.864C195.246 32.864 195.806 32 195.95 31.504H197.63C197.214 33.056 195.998 34.24 193.902 34.24C191.358 34.24 189.806 32.48 189.806 29.92C189.806 27.264 191.358 25.6 193.822 25.6C196.462 25.6 197.758 27.44 197.758 30.352H191.486C191.486 31.728 192.366 32.864 193.854 32.864ZM193.822 26.928C192.462 26.928 191.486 27.84 191.486 29.104H196.078C196.078 27.84 195.182 26.928 193.822 26.928ZM204.653 22.56H206.333V34H204.653V33.056H204.621C204.189 33.616 203.389 34.24 202.125 34.24C200.029 34.24 198.477 32.608 198.477 29.92C198.477 27.232 200.029 25.6 202.125 25.6C203.389 25.6 204.189 26.192 204.621 26.816H204.653V22.56ZM202.413 32.864C203.789 32.864 204.637 31.728 204.637 29.92C204.637 28.096 203.789 26.976 202.413 26.976C200.941 26.976 200.157 28.32 200.157 29.92C200.157 31.52 200.941 32.864 202.413 32.864ZM214.891 27.2H213.356V31.632C213.356 32.56 213.804 32.672 214.891 32.608V33.984C214.556 34.064 214.188 34.112 213.74 34.112C212.396 34.112 211.66 33.504 211.66 31.776V27.2H210.476V25.824H211.66V23.248H213.356V25.824H214.891V27.2ZM219.714 34.24C217.154 34.24 215.602 32.464 215.602 29.92C215.602 27.376 217.154 25.6 219.714 25.6C222.274 25.6 223.826 27.376 223.826 29.92C223.826 32.464 222.274 34.24 219.714 34.24ZM219.714 32.864C221.314 32.864 222.146 31.6 222.146 29.92C222.146 28.224 221.314 26.976 219.714 26.976C218.114 26.976 217.282 28.224 217.282 29.92C217.282 31.6 218.114 32.864 219.714 32.864ZM233.778 22.56H235.458V34H233.778V33.056H233.746C233.314 33.616 232.514 34.24 231.25 34.24C229.154 34.24 227.602 32.608 227.602 29.92C227.602 27.232 229.154 25.6 231.25 25.6C232.514 25.6 233.314 26.192 233.746 26.816H233.778V22.56ZM231.538 32.864C232.914 32.864 233.762 31.728 233.762 29.92C233.762 28.096 232.914 26.976 231.538 26.976C230.066 26.976 229.282 28.32 229.282 29.92C229.282 31.52 230.066 32.864 231.538 32.864ZM242.01 27.968C242.01 27.376 241.658 26.928 240.538 26.928C239.194 26.928 238.698 27.344 238.618 28.4H236.986C237.066 26.832 238.074 25.6 240.538 25.6C242.346 25.6 243.69 26.288 243.69 28.464V32.352C243.69 32.928 243.818 33.232 244.474 33.168V33.968C244.09 34.112 243.818 34.144 243.498 34.144C242.602 34.144 242.186 33.824 242.026 33.024H241.994C241.482 33.744 240.554 34.24 239.29 34.24C237.626 34.24 236.602 33.28 236.602 31.904C236.602 30.112 237.93 29.552 239.978 29.152C241.242 28.912 242.01 28.752 242.01 27.968ZM239.658 32.912C241.05 32.912 242.01 32.224 242.01 30.896V29.664C241.738 29.856 241.082 30.048 240.298 30.208C238.906 30.512 238.298 30.912 238.298 31.744C238.298 32.496 238.746 32.912 239.658 32.912ZM248.992 29.056C250.496 29.408 252.128 29.744 252.128 31.696C252.128 33.264 250.784 34.24 248.8 34.24C246.16 34.24 245.024 33.008 244.944 31.28H246.576C246.656 32.16 247.04 32.912 248.768 32.912C249.936 32.912 250.432 32.336 250.432 31.824C250.432 30.8 249.456 30.72 248.256 30.432C246.96 30.128 245.2 29.872 245.2 28.016C245.2 26.672 246.384 25.6 248.432 25.6C250.656 25.6 251.712 26.8 251.824 28.224H250.192C250.08 27.584 249.76 26.928 248.448 26.928C247.44 26.928 246.896 27.312 246.896 27.888C246.896 28.72 247.808 28.784 248.992 29.056ZM257.621 25.6C259.173 25.6 260.373 26.48 260.373 28.352V34H258.677V28.832C258.677 27.728 258.213 27.024 257.045 27.024C255.813 27.024 254.933 27.808 254.933 29.024V34H253.253V22.56H254.933V26.88H254.965C255.397 26.24 256.245 25.6 257.621 25.6ZM266.117 25.6C268.213 25.6 269.765 27.232 269.765 29.92C269.765 32.608 268.213 34.24 266.117 34.24C264.853 34.24 264.053 33.616 263.621 33.056H263.589V34H261.909V22.56H263.589V26.816H263.621C264.053 26.192 264.853 25.6 266.117 25.6ZM265.829 32.864C267.301 32.864 268.085 31.52 268.085 29.92C268.085 28.32 267.301 26.976 265.829 26.976C264.453 26.976 263.605 28.096 263.605 29.92C263.605 31.728 264.453 32.864 265.829 32.864ZM274.621 34.24C272.061 34.24 270.509 32.464 270.509 29.92C270.509 27.376 272.061 25.6 274.621 25.6C277.181 25.6 278.733 27.376 278.733 29.92C278.733 32.464 277.181 34.24 274.621 34.24ZM274.621 32.864C276.221 32.864 277.053 31.6 277.053 29.92C277.053 28.224 276.221 26.976 274.621 26.976C273.021 26.976 272.189 28.224 272.189 29.92C272.189 31.6 273.021 32.864 274.621 32.864ZM284.838 27.968C284.838 27.376 284.486 26.928 283.366 26.928C282.022 26.928 281.526 27.344 281.446 28.4H279.814C279.894 26.832 280.902 25.6 283.366 25.6C285.174 25.6 286.518 26.288 286.518 28.464V32.352C286.518 32.928 286.646 33.232 287.302 33.168V33.968C286.918 34.112 286.646 34.144 286.326 34.144C285.43 34.144 285.014 33.824 284.854 33.024H284.822C284.31 33.744 283.382 34.24 282.118 34.24C280.454 34.24 279.43 33.28 279.43 31.904C279.43 30.112 280.758 29.552 282.806 29.152C284.07 28.912 284.838 28.752 284.838 27.968ZM282.486 32.912C283.878 32.912 284.838 32.224 284.838 30.896V29.664C284.566 29.856 283.91 30.048 283.126 30.208C281.734 30.512 281.126 30.912 281.126 31.744C281.126 32.496 281.574 32.912 282.486 32.912ZM292.172 25.632C292.46 25.632 292.668 25.648 292.908 25.68V27.264H292.876C291.26 26.992 289.964 28.08 289.964 29.824V34H288.284V25.824H289.964V27.36H289.996C290.428 26.336 291.1 25.632 292.172 25.632ZM299.466 22.56H301.146V34H299.466V33.056H299.434C299.002 33.616 298.202 34.24 296.938 34.24C294.842 34.24 293.29 32.608 293.29 29.92C293.29 27.232 294.842 25.6 296.938 25.6C298.202 25.6 299.002 26.192 299.434 26.816H299.466V22.56ZM297.226 32.864C298.602 32.864 299.45 31.728 299.45 29.92C299.45 28.096 298.602 26.976 297.226 26.976C295.754 26.976 294.97 28.32 294.97 29.92C294.97 31.52 295.754 32.864 297.226 32.864Z" fill="white"/>
<path d="M316.4 34L315 32.6L324.6 23H316V21H328V33H326V24.4L316.4 34Z" fill="white"/>
<rect x="0.5" y="0.5" width="481" height="55" rx="7.5" stroke="#1F1F1F"/>
<defs>
<linearGradient id="paint0_linear_101_231" x1="-207.38" y1="56" x2="565.706" y2="5.39118" gradientUnits="userSpaceOnUse">
<stop stop-color="#FC8C02"/>
<stop offset="1" stop-color="#5618FF"/>
</linearGradient>
</defs>
</svg>
