<svg width="489" height="56" viewBox="0 0 489 56" fill="none" xmlns="http://www.w3.org/2000/svg">
<rect x="0.5" y="0.5" width="488" height="55" rx="7.5" fill="url(#paint0_linear_101_157)"/>
<path d="M148.598 23.06H150.118L153.382 33.06H153.398L156.661 23.06H158.182L154.182 34.5H152.598L148.598 23.06ZM160.024 24.756C159.672 24.756 159.224 24.484 159.224 23.988C159.224 23.492 159.672 23.22 160.024 23.22C160.392 23.22 160.824 23.492 160.824 23.988C160.824 24.484 160.392 24.756 160.024 24.756ZM159.384 26.34H160.664V34.5H159.384V26.34ZM166.055 33.604C167.687 33.604 168.295 32.548 168.439 31.988H169.719C169.303 33.508 168.135 34.724 166.103 34.724C163.623 34.724 162.119 32.98 162.119 30.42C162.119 27.7 163.655 26.116 166.039 26.116C168.599 26.116 169.847 27.86 169.847 30.756H163.399C163.399 32.228 164.279 33.604 166.055 33.604ZM166.039 27.236C164.503 27.236 163.399 28.324 163.399 29.636H168.567C168.567 28.324 167.575 27.236 166.039 27.236ZM170.142 26.34H171.55L173.406 33.108H173.438L175.262 26.34H176.622L178.462 33.108H178.494L180.35 26.34H181.758L179.15 34.5H177.79L175.95 27.764H175.918L174.11 34.5H172.75L170.142 26.34ZM192.727 31.636H187.687L186.679 34.5H185.191L189.415 23.06H191.015L195.223 34.5H193.735L192.727 31.636ZM188.167 30.356H192.263L190.231 24.388H190.199L188.167 30.356ZM194.782 26.34H196.174L198.43 33.22H198.446L200.702 26.34H202.094L199.166 34.5H197.71L194.782 26.34ZM207.763 28.42C207.763 27.78 207.411 27.236 206.099 27.236C204.547 27.236 204.035 27.684 203.955 28.868H202.675C202.755 27.3 203.731 26.116 206.099 26.116C207.651 26.116 209.043 26.724 209.043 28.692V32.66C209.043 33.3 209.155 33.652 209.971 33.556V34.452C209.635 34.564 209.459 34.58 209.219 34.58C208.451 34.58 207.987 34.372 207.763 33.476H207.731C207.219 34.244 206.307 34.724 204.963 34.724C203.315 34.724 202.275 33.78 202.275 32.404C202.275 30.548 203.651 30.068 205.763 29.668C207.139 29.412 207.763 29.236 207.763 28.42ZM205.091 33.604C206.611 33.604 207.763 32.916 207.763 31.348V29.988C207.523 30.228 206.739 30.452 205.875 30.628C204.291 30.964 203.555 31.364 203.555 32.34C203.555 33.14 204.035 33.604 205.091 33.604ZM211.727 24.756C211.375 24.756 210.927 24.484 210.927 23.988C210.927 23.492 211.375 23.22 211.727 23.22C212.095 23.22 212.527 23.492 212.527 23.988C212.527 24.484 212.095 24.756 211.727 24.756ZM211.087 26.34H212.367V34.5H211.087V26.34ZM214.178 23.06H215.458V34.5H214.178V23.06ZM222.263 28.42C222.263 27.78 221.911 27.236 220.599 27.236C219.047 27.236 218.535 27.684 218.455 28.868H217.175C217.255 27.3 218.231 26.116 220.599 26.116C222.151 26.116 223.543 26.724 223.543 28.692V32.66C223.543 33.3 223.655 33.652 224.471 33.556V34.452C224.135 34.564 223.959 34.58 223.719 34.58C222.951 34.58 222.487 34.372 222.263 33.476H222.231C221.719 34.244 220.807 34.724 219.463 34.724C217.815 34.724 216.775 33.78 216.775 32.404C216.775 30.548 218.151 30.068 220.263 29.668C221.639 29.412 222.263 29.236 222.263 28.42ZM219.591 33.604C221.111 33.604 222.263 32.916 222.263 31.348V29.988C222.023 30.228 221.239 30.452 220.375 30.628C218.791 30.964 218.055 31.364 218.055 32.34C218.055 33.14 218.535 33.604 219.591 33.604ZM229.299 26.116C231.347 26.116 232.979 27.732 232.979 30.42C232.979 33.108 231.347 34.724 229.299 34.724C227.987 34.724 227.219 34.116 226.739 33.492H226.707V34.5H225.427V23.06H226.707V27.396H226.739C227.219 26.692 227.987 26.116 229.299 26.116ZM229.171 33.604C230.851 33.604 231.699 32.02 231.699 30.42C231.699 28.82 230.851 27.236 229.171 27.236C227.651 27.236 226.707 28.5 226.707 30.42C226.707 32.34 227.651 33.604 229.171 33.604ZM234.319 23.06H235.599V34.5H234.319V23.06ZM240.883 33.604C242.515 33.604 243.123 32.548 243.267 31.988H244.547C244.131 33.508 242.963 34.724 240.931 34.724C238.451 34.724 236.947 32.98 236.947 30.42C236.947 27.7 238.483 26.116 240.867 26.116C243.427 26.116 244.675 27.86 244.675 30.756H238.227C238.227 32.228 239.107 33.604 240.883 33.604ZM240.867 27.236C239.331 27.236 238.227 28.324 238.227 29.636H243.395C243.395 28.324 242.403 27.236 240.867 27.236ZM257.69 25.94C257.69 27.348 256.858 27.988 255.914 28.308V28.34C257.114 28.548 258.138 29.46 258.138 31.172C258.138 33.284 256.634 34.5 254.266 34.5H249.338V23.06H253.946C256.282 23.06 257.69 24.164 257.69 25.94ZM250.778 27.844H254.17C255.802 27.844 256.25 27.14 256.25 26.1C256.25 25.06 255.642 24.34 254.33 24.34H250.778V27.844ZM250.778 29.124V33.22H254.41C256.25 33.22 256.698 32.244 256.698 31.172C256.698 29.94 255.93 29.124 254.73 29.124H250.778ZM262.979 34.724C260.483 34.724 258.979 32.964 258.979 30.42C258.979 27.876 260.483 26.116 262.979 26.116C265.459 26.116 266.963 27.876 266.963 30.42C266.963 32.964 265.459 34.724 262.979 34.724ZM262.979 33.604C264.803 33.604 265.683 32.164 265.683 30.42C265.683 28.676 264.803 27.236 262.979 27.236C261.139 27.236 260.259 28.676 260.259 30.42C260.259 32.164 261.139 33.604 262.979 33.604ZM273.663 26.34H274.943V34.5H273.663V33.524H273.631C273.199 34.1 272.335 34.724 270.943 34.724C269.455 34.724 268.207 33.908 268.207 32.036V26.34H269.487V31.716C269.487 32.772 269.983 33.604 271.263 33.604C272.703 33.604 273.663 32.692 273.663 31.428V26.34ZM280.708 26.116C282.196 26.116 283.444 26.932 283.444 28.804V34.5H282.164V29.124C282.164 28.068 281.668 27.236 280.388 27.236C278.948 27.236 277.988 28.148 277.988 29.412V34.5H276.708V26.34H277.988V27.316H278.02C278.452 26.74 279.316 26.116 280.708 26.116ZM288.557 27.46H286.957V32.372C286.957 33.3 287.469 33.46 288.557 33.38V34.5C288.269 34.564 287.933 34.596 287.597 34.596C286.509 34.596 285.677 34.164 285.677 32.5V27.46H284.477V26.34H285.677V23.62H286.957V26.34H288.557V27.46ZM290.696 24.756C290.344 24.756 289.896 24.484 289.896 23.988C289.896 23.492 290.344 23.22 290.696 23.22C291.064 23.22 291.496 23.492 291.496 23.988C291.496 24.484 291.064 24.756 290.696 24.756ZM290.056 26.34H291.336V34.5H290.056V26.34ZM296.727 33.604C298.359 33.604 298.967 32.548 299.111 31.988H300.391C299.975 33.508 298.807 34.724 296.775 34.724C294.295 34.724 292.791 32.98 292.791 30.42C292.791 27.7 294.327 26.116 296.711 26.116C299.271 26.116 300.519 27.86 300.519 30.756H294.071C294.071 32.228 294.951 33.604 296.727 33.604ZM296.711 27.236C295.175 27.236 294.071 28.324 294.071 29.636H299.239C299.239 28.324 298.247 27.236 296.711 27.236ZM305.098 29.652C306.554 30.004 308.202 30.244 308.202 32.26C308.202 33.748 306.842 34.724 304.986 34.724C302.49 34.724 301.338 33.54 301.258 31.78H302.538C302.618 32.692 302.938 33.604 304.986 33.604C306.378 33.604 306.922 32.884 306.922 32.34C306.922 31.156 305.85 31.092 304.682 30.804C303.434 30.5 301.578 30.356 301.578 28.436C301.578 27.156 302.714 26.116 304.634 26.116C306.666 26.116 307.754 27.268 307.882 28.676H306.602C306.474 28.052 306.17 27.236 304.634 27.236C303.482 27.236 302.858 27.7 302.858 28.34C302.858 29.3 303.962 29.38 305.098 29.652Z" fill="white"/>
<path d="M323.4 34L322 32.6L331.6 23H323V21H335V33H333V24.4L323.4 34Z" fill="white"/>
<rect x="0.5" y="0.5" width="488" height="55" rx="7.5" stroke="#1F1F1F"/>
<defs>
<linearGradient id="paint0_linear_101_157" x1="-210.392" y1="56" x2="573.824" y2="3.91704" gradientUnits="userSpaceOnUse">
<stop stop-color="#FC8C02"/>
<stop offset="1" stop-color="#5618FF"/>
</linearGradient>
</defs>
</svg>
